<svg width="78" height="78" viewBox="0 0 78 78" fill="none" xmlns="http://www.w3.org/2000/svg">
<circle cx="39" cy="39" r="39" fill="#FFAB07"/>
<path d="M38.6464 59.3536C38.8417 59.5488 39.1583 59.5488 39.3536 59.3536L42.5355 56.1716C42.7308 55.9763 42.7308 55.6597 42.5355 55.4645C42.3403 55.2692 42.0237 55.2692 41.8284 55.4645L39 58.2929L36.1716 55.4645C35.9763 55.2692 35.6597 55.2692 35.4645 55.4645C35.2692 55.6597 35.2692 55.9763 35.4645 56.1716L38.6464 59.3536ZM38.5 19V59H39.5V19H38.5Z" fill="white"/>
<path d="M9.23373 51.9748L14.0382 49.0978L14.2478 49.4478L10.0336 51.9714L16.2083 52.7217L16.3932 53.0306L11.5887 55.9076L11.3791 55.5575L15.5865 53.0381L9.41868 52.2836L9.23373 51.9748Z" fill="white"/>
<path d="M16.6169 60.7401L16.9277 60.6193C16.9811 60.9548 17.0961 61.2643 17.2727 61.5479C17.4493 61.8314 17.6611 62.0748 17.9082 62.2782C18.1587 62.4774 18.4181 62.6224 18.6866 62.7132C18.9626 62.8032 19.225 62.8246 19.4739 62.7772C19.7261 62.7257 19.9386 62.5914 20.1112 62.3743C20.3369 62.0905 20.401 61.7871 20.3035 61.4642C20.2059 61.1413 19.961 60.8238 19.5686 60.5118L18.667 59.7947L18.8861 59.5192L19.7752 60.2263C20.1091 60.4919 20.4264 60.6284 20.7272 60.6359C21.0312 60.6392 21.2845 60.5135 21.487 60.2589C21.633 60.0752 21.7053 59.8772 21.7039 59.6648C21.7066 59.4557 21.6486 59.246 21.5297 59.0356C21.4183 58.8244 21.2574 58.6283 21.047 58.4473C20.8366 58.2663 20.5896 58.1142 20.306 57.9909C20.0267 57.8709 19.7257 57.7951 19.4033 57.7636L19.4985 57.3997C19.8759 57.4478 20.2252 57.5484 20.5463 57.7016C20.8708 57.8506 21.152 58.0368 21.39 58.2602C21.6322 58.4868 21.8153 58.7279 21.9393 58.9832C22.0675 59.2419 22.1274 59.5008 22.119 59.7598C22.1106 60.0189 22.0184 60.259 21.8424 60.4803C21.6731 60.6932 21.4732 60.8374 21.2427 60.913C21.0155 60.9845 20.7711 60.9877 20.5093 60.9226C20.2509 60.8534 19.9923 60.7159 19.7335 60.5101L19.8532 60.411C20.1496 60.6467 20.3677 60.8951 20.5075 61.1563C20.6515 61.4207 20.7156 61.6829 20.6997 61.9428C20.6838 62.2028 20.5862 62.4454 20.4069 62.6708C20.2343 62.8879 20.0273 63.0367 19.786 63.1174C19.5522 63.1972 19.3003 63.2183 19.0303 63.1808C18.7678 63.1424 18.5018 63.0569 18.2324 62.9244C17.9705 62.7911 17.7285 62.6156 17.5063 62.398C17.2808 62.1846 17.0893 61.937 16.9319 61.655C16.7745 61.3731 16.6695 61.0682 16.6169 60.7401Z" fill="white"/>
<path d="M26.2805 67.3086C26.4952 67.4888 26.7273 67.5931 26.9768 67.6217C27.2279 67.6452 27.512 67.5307 27.829 67.278L28.2231 66.9643L28.2892 66.9192L31.7226 63.6851L32.124 63.8217L28.1464 67.4875C27.897 67.7237 27.6456 67.8747 27.3922 67.9406C27.1438 68.0081 26.9052 68.0058 26.6762 67.9335C26.4507 67.8679 26.2423 67.7519 26.0511 67.5854L26.2805 67.3086ZM28.1401 67.2825L27.3377 62.1924L27.7618 62.3367L28.4758 67.0165L28.1401 67.2825Z" fill="white"/>
<path d="M40.7914 67.6921C40.4577 67.8467 40.1236 67.9666 39.7889 68.0518C39.4595 68.137 39.1428 68.182 38.8389 68.1867C38.2043 68.1966 37.706 68.0524 37.3439 67.754C36.9871 67.4502 36.8044 67.021 36.7957 66.4664L36.7665 64.5946L37.1744 64.5883L37.2031 66.4201C37.2101 66.868 37.3595 67.215 37.6514 67.4612C37.9486 67.7072 38.3532 67.8263 38.8651 67.8183C39.1637 67.8136 39.4751 67.7687 39.7991 67.6836C40.1284 67.5932 40.4572 67.468 40.7854 67.3082L40.7914 67.6921ZM40.7335 70.1333L40.646 64.534L41.054 64.5277L41.1415 70.127L40.7335 70.1333Z" fill="white"/>
<path d="M48.5942 68.7786L46.5431 63.5678L46.9228 63.4183L48.7219 67.989L50.4736 62.0206L50.8086 61.8888L52.8597 67.0996L52.48 67.249L50.6838 62.6858L48.9292 68.6467L48.5942 68.7786Z" fill="white"/>
<path d="M60.2507 62.2619L56.7214 58.2278L56.896 58.2451L55.2884 59.6516L55.0461 59.3746L58.3878 56.4511L58.6301 56.7281L57.0225 58.1345L57.0285 57.9592L60.5577 61.9933L60.2507 62.2619Z" fill="white"/>
<path d="M64.4521 51.6697C64.7803 51.1017 65.1581 50.7409 65.5855 50.5875C66.0129 50.4341 66.476 50.5015 66.9747 50.7896C67.4873 51.0858 67.7855 51.4706 67.8692 51.944C67.951 52.4101 67.8198 52.941 67.4756 53.5367L66.403 55.3931L61.5542 52.5916L61.7583 52.2383L63.5316 53.2629L64.4521 51.6697ZM67.1818 53.3577C67.4619 52.8728 67.5678 52.4443 67.4995 52.0722C67.4311 51.7001 67.1892 51.394 66.7735 51.1538C66.3626 50.9164 65.9857 50.865 65.6431 50.9996C65.2985 51.127 64.9848 51.4354 64.7019 51.9249L63.8294 53.4349L66.3093 54.8677L67.1818 53.3577Z" fill="white"/>
</svg>
