<svg width="63" height="63" viewBox="0 0 63 63" fill="none" xmlns="http://www.w3.org/2000/svg">
<g clip-path="url(#clip0_82_210)">
<path d="M31.5 5.25C45.9979 5.25 57.75 17.0021 57.75 31.5C57.7534 35.5755 56.8063 39.5956 54.9841 43.2411C53.1618 46.8865 50.5146 50.0567 47.2526 52.5H52.5C53.1962 52.5 53.8639 52.7766 54.3562 53.2688C54.8484 53.7611 55.125 54.4288 55.125 55.125C55.125 55.8212 54.8484 56.4889 54.3562 56.9812C53.8639 57.4734 53.1962 57.75 52.5 57.75H31.5C17.0021 57.75 5.25 45.9979 5.25 31.5C5.25 17.0021 17.0021 5.25 31.5 5.25ZM31.5 36.75C30.1076 36.75 28.7723 37.3031 27.7877 38.2877C26.8031 39.2723 26.25 40.6076 26.25 42C26.25 43.3924 26.8031 44.7277 27.7877 45.7123C28.7723 46.6969 30.1076 47.25 31.5 47.25C32.8924 47.25 34.2277 46.6969 35.2123 45.7123C36.1969 44.7277 36.75 43.3924 36.75 42C36.75 40.6076 36.1969 39.2723 35.2123 38.2877C34.2277 37.3031 32.8924 36.75 31.5 36.75ZM21 26.25C19.6076 26.25 18.2723 26.8031 17.2877 27.7877C16.3031 28.7723 15.75 30.1076 15.75 31.5C15.75 32.8924 16.3031 34.2277 17.2877 35.2123C18.2723 36.1969 19.6076 36.75 21 36.75C22.3924 36.75 23.7277 36.1969 24.7123 35.2123C25.6969 34.2277 26.25 32.8924 26.25 31.5C26.25 30.1076 25.6969 28.7723 24.7123 27.7877C23.7277 26.8031 22.3924 26.25 21 26.25ZM42 26.25C40.6076 26.25 39.2723 26.8031 38.2877 27.7877C37.3031 28.7723 36.75 30.1076 36.75 31.5C36.75 32.8924 37.3031 34.2277 38.2877 35.2123C39.2723 36.1969 40.6076 36.75 42 36.75C43.3924 36.75 44.7277 36.1969 45.7123 35.2123C46.6969 34.2277 47.25 32.8924 47.25 31.5C47.25 30.1076 46.6969 28.7723 45.7123 27.7877C44.7277 26.8031 43.3924 26.25 42 26.25ZM31.5 15.75C30.1076 15.75 28.7723 16.3031 27.7877 17.2877C26.8031 18.2723 26.25 19.6076 26.25 21C26.25 22.3924 26.8031 23.7277 27.7877 24.7123C28.7723 25.6969 30.1076 26.25 31.5 26.25C32.8924 26.25 34.2277 25.6969 35.2123 24.7123C36.1969 23.7277 36.75 22.3924 36.75 21C36.75 19.6076 36.1969 18.2723 35.2123 17.2877C34.2277 16.3031 32.8924 15.75 31.5 15.75Z" fill="#FFAB07"/>
</g>
<defs>
<clipPath id="clip0_82_210">
<rect width="63" height="63" fill="white"/>
</clipPath>
</defs>
</svg>
