<svg width="63" height="63" viewBox="0 0 63 63" fill="none" xmlns="http://www.w3.org/2000/svg">
<path fill-rule="evenodd" clip-rule="evenodd" d="M31.5 56.7001C38.1835 56.7001 44.5932 54.0451 49.3191 49.3191C54.0451 44.5932 56.7001 38.1835 56.7001 31.5C56.7001 24.8166 54.0451 18.4069 49.3191 13.681C44.5932 8.95504 38.1835 6.30005 31.5 6.30005C24.8166 6.30005 18.4069 8.95504 13.681 13.681C8.95504 18.4069 6.30005 24.8166 6.30005 31.5C6.30005 38.1835 8.95504 44.5932 13.681 49.3191C18.4069 54.0451 24.8166 56.7001 31.5 56.7001ZM30.0983 22.5793C29.6239 22.2627 29.0725 22.081 28.5029 22.0533C27.9333 22.0256 27.3668 22.1531 26.864 22.4221C26.3612 22.6912 25.9408 23.0917 25.6477 23.5809C25.3547 24.0702 25.2 24.6298 25.2001 25.2001V37.8C25.2 38.3703 25.3547 38.9299 25.6477 39.4192C25.9408 39.9084 26.3612 40.3089 26.864 40.578C27.3668 40.847 27.9333 40.9745 28.5029 40.9468C29.0725 40.9191 29.6239 40.7374 30.0983 40.4208L39.5483 34.1208C39.9797 33.8332 40.3335 33.4435 40.5781 32.9863C40.8228 32.5291 40.9508 32.0186 40.9508 31.5C40.9508 30.9815 40.8228 30.471 40.5781 30.0138C40.3335 29.5566 39.9797 29.1669 39.5483 28.8792L30.0983 22.5793Z" fill="#FFAB07"/>
</svg>
