<svg width="63" height="63" viewBox="0 0 63 63" fill="none" xmlns="http://www.w3.org/2000/svg">
<path d="M31.5 10.5C34.2848 10.5 36.9555 11.6062 38.9246 13.5754C40.8938 15.5445 42 18.2152 42 21C42 23.7848 40.8938 26.4555 38.9246 28.4246C36.9555 30.3938 34.2848 31.5 31.5 31.5C28.7152 31.5 26.0445 30.3938 24.0754 28.4246C22.1062 26.4555 21 23.7848 21 21C21 18.2152 22.1062 15.5445 24.0754 13.5754C26.0445 11.6062 28.7152 10.5 31.5 10.5ZM31.5 36.75C43.1025 36.75 52.5 41.4487 52.5 47.25V52.5H10.5V47.25C10.5 41.4487 19.8975 36.75 31.5 36.75Z" fill="#FFAB07"/>
</svg>
